{"accessors" : [{"bufferView" : 0, "byteOffset" : 0, "componentType" : 5123, "count" : 61275, "type" : "SCALAR", "max" : [48552], "min" : [0]}, {"bufferView" : 1, "byteOffset" : 0, "componentType" : 5126, "count" : 48553, "type" : "VEC3", "max" : [2.009459972381592, 2.7248458862304688, 9.796747207641602], "min" : [-2.00954008102417, -3.249155044555664, -5.9222540855407715], "name" : "POSITION"}, {"bufferView" : 1, "byteOffset" : 12, "componentType" : 5126, "count" : 48553, "type" : "VEC2", "max" : [0.9754999876022339, -0.009999999776482582], "min" : [0.009999999776482582, -0.9900000095367432], "name" : "TEXCOORD_0"}, {"bufferView" : 1, "byteOffset" : 20, "componentType" : 5126, "count" : 48553, "type" : "VEC3", "max" : [0.9999584555625916, 0.999955415725708, 0.9990543127059937], "min" : [-0.9998817443847656, -0.9999973177909851, -0.9997261762619019], "name" : "NORMAL"}], "asset" : {"generator" : "Aspose.3D 21.11", "version" : "2.0"}, "buffers" : [{"uri" : "data:application/octet-stream;base64,", "byteLength" : 2083360}], "bufferViews" : [{"buffer" : 0, "byteOffset" : 0, "byteLength" : 122552, "target" : 34963}, {"buffer" : 0, "byteOffset" : 122556, "byteLength" : 1960800, "byteStride" : 32, "target" : 34962}], "meshes" : [{"primitives" : [{"attributes" : {"POSITION" : 1, "TEXCOORD_0" : 2, "NORMAL" : 3}, "indices" : 0, "mode" : 4}], "name" : ""}], "nodes" : [{"mesh" : 0, "name" : "Triceratops_RetopoGroup1"}], "scene" : 0, "scenes" : [{"nodes" : [0]}]}